<?xml version="1.0" standalone="no"?>
<!DOCTYPE svg PUBLIC "-//W3C//DTD SVG 20010904//EN"
 "http://www.w3.org/TR/2001/REC-SVG-20010904/DTD/svg10.dtd">
<svg version="1.0" xmlns="http://www.w3.org/2000/svg"
 width="1000.000000pt" height="1000.000000pt" viewBox="0 0 1000.000000 1000.000000"
 preserveAspectRatio="xMidYMid meet">
<metadata>
Created by potrace 1.14, written by Peter Selinger 2001-2017
</metadata>
<g transform="translate(0.000000,1000.000000) scale(0.100000,-0.100000)"
fill="#000000" stroke="none">
<path d="M0 5000 l0 -5000 5000 0 5000 0 0 5000 0 5000 -5000 0 -5000 0 0
-5000z m4781 3717 c117 -22 236 -69 328 -130 103 -68 252 -221 330 -339 l65
-97 40 72 c84 153 154 226 271 282 84 40 159 55 275 55 246 0 400 -81 480
-251 32 -70 67 -207 57 -231 -3 -8 -22 -23 -44 -33 -159 -75 -318 -234 -416
-415 -46 -86 -100 -251 -122 -370 -29 -158 -31 -413 -5 -620 41 -330 104 -518
237 -709 l44 -63 -22 -97 c-49 -220 -178 -513 -285 -647 -60 -76 -100 -111
-159 -142 -46 -25 -67 -17 -100 39 -31 53 -27 249 9 434 40 207 43 265 18 362
-32 125 -81 190 -163 215 -48 14 -103 0 -147 -37 -56 -47 -61 -66 -97 -410
-44 -411 -150 -668 -245 -592 -48 38 -92 124 -131 257 -21 70 -63 305 -74 410
-10 96 -22 133 -52 162 -41 39 -97 59 -167 59 -78 0 -137 -23 -177 -69 l-32
-36 6 -110 c3 -61 15 -165 26 -231 43 -256 51 -472 21 -577 -66 -233 -325 8
-475 442 -20 58 -48 133 -62 167 -52 129 -168 183 -316 149 -129 -30 -177 -68
-177 -143 0 -53 11 -78 81 -183 116 -175 194 -368 180 -445 -27 -144 -150
-202 -284 -133 -65 32 -118 71 -214 156 -136 119 -224 172 -288 172 -30 0 -29
6 -6 -80 46 -163 53 -427 16 -605 -13 -66 -83 -287 -109 -345 -5 -11 16 -32
75 -75 152 -111 254 -263 308 -458 31 -110 41 -195 42 -336 l0 -129 67 -29
c142 -60 317 -187 449 -326 64 -68 165 -189 206 -247 20 -29 62 -37 289 -55
222 -18 289 -28 367 -57 124 -46 209 -126 271 -251 58 -119 74 -191 67 -312
-6 -113 -29 -188 -85 -273 -67 -102 -157 -156 -301 -181 -89 -16 -100 -16
-190 0 -112 21 -167 41 -314 115 -137 69 -153 69 -287 3 -142 -70 -172 -80
-276 -86 -226 -14 -491 74 -666 222 -152 129 -247 308 -267 501 -6 62 -14 91
-27 105 -24 24 -105 39 -209 39 -99 0 -212 27 -312 75 -225 106 -387 292 -471
540 -45 132 -55 211 -49 365 5 136 19 212 57 302 11 26 20 49 20 51 0 3 -52
30 -114 60 -63 31 -134 69 -158 85 -171 118 -304 353 -365 642 -13 62 -18 128
-17 240 0 175 21 292 72 417 63 155 202 324 367 448 44 32 84 62 88 66 5 3 -6
22 -23 40 -160 173 -251 484 -206 709 43 213 117 361 246 490 153 153 316 223
583 251 62 7 113 13 114 13 1 1 -4 38 -12 81 -39 219 0 489 98 680 145 282
527 456 883 401 153 -23 357 -96 515 -183 4 -2 9 24 13 57 21 182 139 403 282
527 115 101 253 163 395 179 35 4 73 11 84 15 29 12 176 5 276 -14z m2362
-852 c371 -65 809 -401 990 -761 49 -97 96 -252 113 -373 16 -111 16 -126 0
-236 -25 -176 -71 -295 -150 -390 -125 -151 -257 -224 -667 -367 -122 -42
-126 -43 -254 -43 -114 0 -141 4 -215 27 -269 86 -500 329 -599 628 -30 91
-59 275 -72 456 -36 498 113 858 415 1004 138 67 274 84 439 55z m1459 -1405
c180 -108 299 -276 365 -517 61 -224 18 -518 -134 -903 -44 -112 -81 -177 -69
-120 31 138 49 424 36 578 -24 292 -97 431 -292 556 -31 20 -61 36 -66 36 -27
0 -29 24 -5 83 29 76 73 250 73 295 0 18 5 32 12 32 6 0 42 -18 80 -40z
m-1948 -885 c150 -88 292 -133 455 -143 98 -7 106 -9 104 -27 -1 -11 -6 -56
-12 -100 -47 -379 218 -741 627 -858 45 -13 79 -26 76 -30 -7 -6 -18 -6 -179
13 -213 25 -401 94 -571 209 -272 184 -459 466 -554 838 -29 110 -35 143 -26
143 2 0 39 -20 80 -45z m87 -2902 c31 -103 34 -289 5 -403 -53 -214 -191 -406
-379 -528 -172 -111 -316 -155 -746 -228 -112 -19 -241 -44 -288 -56 -46 -11
-85 -19 -87 -17 -3 2 8 38 22 79 25 70 27 87 27 245 l0 170 -38 108 c-20 60
-37 110 -37 112 0 1 32 -10 72 -26 99 -41 242 -76 381 -94 148 -19 194 -19
325 1 114 17 167 32 252 72 267 128 420 327 445 579 4 40 10 71 14 68 5 -2 19
-39 32 -82z"/>
<path d="M7513 7110 c-134 -81 -59 -376 119 -466 26 -13 60 -24 75 -24 46 0
89 33 108 84 50 131 -43 339 -180 402 -61 29 -81 30 -122 4z"/>
</g>
</svg>
